<svg xmlns="http://www.w3.org/2000/svg" viewBox="0 0 24 24" width="120" height="120" fill="none">
  <path d="M22 16.92v3a2 2 0 0 1-2.18 2 19.86 19.86 0 0 1-8.63-3.07 19.5 19.5 0 0 1-6-6A19.86 19.86 0 0 1 2.08 4.18 2 2 0 0 1 4 2h3a2 2 0 0 1 2 1.72c.12.97.36 1.92.72 2.82a2 2 0 0 1-.45 2.11L9.91 9.91a15.05 15.05 0 0 0 6 6l1.26-1.26a2 2 0 0 1 2.11-.45c.9.36 1.85.6 2.82.72A2 2 0 0 1 22 16.92z" stroke="#0F172A" stroke-width="1.6" stroke-linecap="round" stroke-linejoin="round" fill="#0F172A" opacity="0.95"/>
</svg>